Coordinates
version=1
nRows=32
nColumns=22
inDegrees=yes

Units are S.I. units (second, meters, Newtons, ...)
If the header above contains a line with 'inDegrees', this indicates whether rotational values are in degrees (yes) or radians (no).

endheader
time	pelvis_tilt	pelvis_list	pelvis_rotation	pelvis_tx	pelvis_ty	pelvis_tz	hip_flexion_r	hip_adduction_r	hip_rotation_r	knee_angle_r	ankle_angle_r	subtalar_angle_r	hip_flexion_l	hip_adduction_l	hip_rotation_l	knee_angle_l	ankle_angle_l	subtalar_angle_l	lumbar_extension	lumbar_bending	lumbar_rotation
      3.57000000	     17.22317414	      4.17659297	   -162.01886632	      0.34058929	      0.86158898	     -0.31203450	     17.46675363	      7.89745021	     10.47981464	    -14.16765665	     15.53213044	     -6.39323623	     20.31152973	    -15.98392583	     -3.80198326	    -60.74003581	     14.74371428	     12.24498396	     -1.24780477	      3.96347390	     17.22415952
      3.58000000	     17.30620514	      3.85570638	   -162.77120314	      0.34236472	      0.86195859	     -0.31117104	     17.38572224	      7.52644590	     10.90003135	    -13.85331257	     15.64638371	     -5.72807115	     20.38581327	    -15.79777784	     -3.62891299	    -60.34774982	     14.69259626	     13.87742837	     -1.29572935	      4.16120708	     16.94604241
      3.59000000	     17.38379803	      3.49863899	   -163.47477134	      0.34409116	      0.86253384	     -0.31008402	     17.30092396	      7.09209344	     11.42446403	    -13.56389206	     15.73986816	     -4.97063766	     20.42812262	    -15.53923166	     -3.44068694	    -59.93674392	     14.64992882	     15.77590933	     -1.35237955	      4.33693200	     16.69922096
      3.60000000	     17.45757887	      3.12059339	   -164.11492589	      0.34577337	      0.86329294	     -0.30874254	     17.21486813	      6.60325382	     12.01165858	    -13.28750176	     15.78595532	     -4.13281282	     20.45795570	    -15.20773814	     -3.18431203	    -59.52270248	     14.62652867	     17.94538948	     -1.40788163	      4.50902249	     16.47219714
      3.61000000	     17.52163194	      2.69405034	   -164.72788606	      0.34733438	      0.86421178	     -0.30721993	     17.11385917	      6.05075086	     12.67151624	    -13.03513884	     15.87194764	     -3.27094905	     20.43620382	    -14.80032931	     -2.90954065	    -59.10029982	     14.62069549	     20.36027490	     -1.47082575	      4.64284719	     16.29173458
      3.62000000	     17.59021071	      2.25948838	   -165.28897414	      0.34880057	      0.86524005	     -0.30548112	     17.01125877	      5.45732959	     13.32826734	    -12.76889331	     15.91211569	     -2.36780227	     20.41345729	    -14.34679029	     -2.56293270	    -58.69534471	     14.64018924	     23.01495408	     -1.51230553	      4.78260984	     16.11037212
      3.63000000	     17.65310486	      1.79640875	   -165.81934679	      0.35013582	      0.86636336	     -0.30360758	     16.88966566	      4.81915298	     13.99047149	    -12.49196588	     15.96276492	     -1.47361800	     20.36423469	    -13.85016156	     -2.17672670	    -58.30951901	     14.67441737	     25.80741969	     -1.54625263	      4.89727769	     15.96414524
      3.64000000	     17.72195845	      1.33987832	   -166.30614903	      0.35133441	      0.86752627	     -0.30161526	     16.75212066	      4.16258381	     14.61614499	    -12.16479040	     15.96741062	     -0.58161672	     20.32156452	    -13.35532612	     -1.73694784	    -57.95503117	     14.72906652	     28.65118007	     -1.54886546	      5.02096361	     15.81311934
      3.65000000	     17.78273133	      0.89428528	   -166.75751329	      0.35237757	      0.86870525	     -0.29954571	     16.58568861	      3.50262364	     15.19745404	    -11.79213858	     15.94335361	      0.27763158	     20.27726191	    -12.89008897	     -1.26682763	    -57.65280091	     14.80880870	     31.39263482	     -1.52939130	      5.15607348	     15.67606313
      3.66000000	     17.83369844	      0.44617225	   -167.18792266	      0.35326250	      0.86989940	     -0.29747588	     16.38592678	      2.83600796	     15.75713747	    -11.37311401	     15.90154910	      1.07308257	     20.21392519	    -12.46066058	     -0.80172819	    -57.38495212	     14.89782706	     33.91099091	     -1.50182563	      5.28041886	     15.53203638
      3.67000000	     17.87843602	      0.01771989	   -167.58905340	      0.35400251	      0.87106383	     -0.29541411	     16.16190889	      2.18384583	     16.27779155	    -10.90936259	     15.80727992	      1.80357598	     20.15914156	    -12.09473646	     -0.33082217	    -57.18181271	     15.00706284	     36.13334889	     -1.45344884	      5.41283978	     15.39415272
      3.68000000	     17.91190458	     -0.39181701	   -167.96842032	      0.35464659	      0.87218253	     -0.29340102	     15.92304072	      1.55310757	     16.75366892	    -10.42323465	     15.68283026	      2.45964064	     20.11773219	    -11.80464232	      0.12345394	    -57.05942945	     15.14852698	     38.02950685	     -1.39902744	      5.54707325	     15.27213927
      3.69000000	     17.93162582	     -0.79408318	   -168.34172505	      0.35515499	      0.87326621	     -0.29148453	     15.67838575	      0.94561998	     17.21763469	     -9.95086414	     15.53396702	      3.01303385	     20.05849647	    -11.58381626	      0.54377919	    -56.98008542	     15.27300934	     39.57110963	     -1.34298353	      5.66915500	     15.13681671
      3.70000000	     17.94246633	     -1.18895379	   -168.71106557	      0.35557210	      0.87429402	     -0.28967153	     15.44207184	      0.36299329	     17.66185742	     -9.50467399	     15.36802562	      3.45962290	     19.99433152	    -11.42324034	      0.94141994	    -56.95246204	     15.38960524	     40.79377383	     -1.28631740	      5.77382697	     15.00690533
      3.71000000	     17.94553736	     -1.57866798	   -169.07845200	      0.35588744	      0.87525651	     -0.28795015	     15.22818596	     -0.19160634	     18.08864901	     -9.11866925	     15.18915044	      3.79170345	     19.91802936	    -11.30814765	      1.32719327	    -56.96342415	     15.48859316	     41.74799701	     -1.22405365	      5.85840663	     14.89009388
      3.72000000	     17.93683679	     -1.97829899	   -169.46067758	      0.35613911	      0.87616339	     -0.28636045	     15.04279650	     -0.72341003	     18.52895779	     -8.80608184	     14.99689274	      3.97439180	     19.82059073	    -11.22053564	      1.68813749	    -57.00746451	     15.54626560	     42.46062723	     -1.17586644	      5.90411068	     14.76770942
      3.73000000	     17.92846825	     -2.38463185	   -169.85853738	      0.35633686	      0.87699310	     -0.28488756	     14.91091397	     -1.22604681	     18.97929876	     -8.59059239	     14.77841638	      3.99305745	     19.71226081	    -11.14568135	      2.04056895	    -57.07401214	     15.56915068	     42.99977127	     -1.12825607	      5.91535404	     14.65417795
      3.74000000	     17.92508973	     -2.79067341	   -170.27423575	      0.35647947	      0.87773324	     -0.28352800	     14.84121846	     -1.68896066	     19.44307228	     -8.47820063	     14.54055708	      3.83815083	     19.59565312	    -11.07293552	      2.40527951	    -57.14990361	     15.56250813	     43.41519821	     -1.07190161	      5.89705280	     14.56665261
      3.75000000	     17.91763424	     -3.19803595	   -170.71214308	      0.35656128	      0.87838768	     -0.28229940	     14.81841958	     -2.10861943	     19.93054772	     -8.45737905	     14.27668401	      3.42791005	     19.45567015	    -10.99708432	      2.78090339	    -57.22279389	     15.56669797	     43.83737605	     -1.02216153	      5.84752604	     14.48883779
      3.76000000	     17.91640058	     -3.58708306	   -171.15673443	      0.35656645	      0.87894422	     -0.28115412	     14.85392706	     -2.46976234	     20.42145116	     -8.53520111	     13.97519046	      2.76060422	     19.31028600	    -10.91570844	      3.20066397	    -57.28532832	     15.56863147	     44.19687938	     -0.95514138	      5.79043929	     14.42884956
      3.77000000	     17.91008061	     -3.98502379	   -171.61110495	      0.35652994	      0.87941626	     -0.28009264	     14.93026145	     -2.80317920	     20.93759905	     -8.70236789	     13.68197671	      1.97972832	     19.15986473	    -10.80562573	      3.62885405	    -57.36011490	     15.53882007	     44.48663798	     -0.89821913	      5.69690567	     14.36808517
      3.78000000	     17.89128907	     -4.35875440	   -172.05343337	      0.35635446	      0.87982174	     -0.27905877	     15.01932083	     -3.08521702	     21.42215376	     -8.93275548	     13.38215943	      1.06400927	     18.98310676	    -10.68038199	      4.11723296	    -57.40795148	     15.53099194	     44.74834960	     -0.83537945	      5.60982072	     14.29488318
      3.79000000	     17.85788007	     -4.72198090	   -172.47553095	      0.35605392	      0.88016430	     -0.27803014	     15.10188068	     -3.34614344	     21.88912666	     -9.19596043	     13.13570151	      0.17253715	     18.78750686	    -10.52640512	      4.64695079	    -57.44120508	     15.52224322	     44.95208146	     -0.77429601	      5.51267368	     14.19434713
      3.80000000	     17.79393783	     -5.07984323	   -172.87593385	      0.35564846	      0.88046899	     -0.27699313	     15.16584983	     -3.59505315	     22.31586556	     -9.50185971	     12.96380967	     -0.62756971	     18.56899275	    -10.34035571	      5.20377382	    -57.47532970	     15.51089738	     45.08881527	     -0.73733202	      5.40276540	     14.07498986
      3.81000000	     17.71134725	     -5.41829680	   -173.24257591	      0.35510951	      0.88072521	     -0.27593600	     15.20019707	     -3.83428476	     22.71239614	     -9.80658298	     12.87427355	     -1.30030518	     18.33713220	    -10.13195923	      5.79716562	    -57.49466354	     15.50086247	     45.13986858	     -0.69987934	      5.29435403	     13.91773589
      3.82000000	     17.60693089	     -5.73350197	   -173.57669817	      0.35447512	      0.88093582	     -0.27486941	     15.20601895	     -4.06165538	     23.08360474	    -10.11371740	     12.86947664	     -1.83024734	     18.10271513	     -9.91024500	      6.41316267	    -57.51551067	     15.48507879	     45.09818729	     -0.67128014	      5.19094030	     13.72868242
      3.83000000	     17.48380703	     -6.01722646	   -173.88518392	      0.35375236	      0.88109618	     -0.27382149	     15.18948891	     -4.26607068	     23.44618290	    -10.42647438	     12.93539079	     -2.24846856	     17.86890673	     -9.69026311	      7.03771161	    -57.53307160	     15.46323480	     44.96460432	     -0.64662115	      5.10001818	     13.51129744
      3.84000000	     17.34900601	     -6.27632540	   -174.16758466	      0.35299514	      0.88119878	     -0.27279439	     15.17537652	     -4.44970966	     23.79569388	    -10.77538732	     13.05636650	     -2.53098322	     17.65550708	     -9.46394389	      7.66259236	    -57.56291880	     15.41806461	     44.79004803	     -0.62539885	      5.01269603	     13.27478151
      3.85000000	     17.20014492	     -6.48109128	   -174.44296383	      0.35216905	      0.88122387	     -0.27184564	     15.12771194	     -4.57919121	     24.20442827	    -11.09278618	     13.22108475	     -2.92698288	     17.45436661	     -9.27476078	      8.27118417	    -57.60104037	     15.41928439	     44.43282005	     -0.60423917	      4.96060091	     13.03453952
      3.86000000	     17.04973705	     -6.66463168	   -174.70519737	      0.35132145	      0.88116107	     -0.27095330	     15.09918232	     -4.67743331	     24.62344270	    -11.46107219	     13.42256922	     -3.28066990	     17.28538784	     -9.08353877	      8.85238535	    -57.65674211	     15.40806184	     44.04484497	     -0.57616834	      4.90695997	     12.78703614
      3.87000000	     16.89662172	     -6.81631555	   -174.96321174	      0.35043510	      0.88099529	     -0.27015876	     15.07420472	     -4.72674690	     25.06600587	    -11.85459962	     13.66147692	     -3.71030284	     17.14582639	     -8.90854982	      9.39719743	    -57.72864438	     15.40984381	     43.54764177	     -0.54186758	      4.86079010	     12.53822174
      3.88000000	     16.74551439	     -6.93055466	   -175.20948798	      0.34948561	      0.88070412	     -0.26945548	     15.04461292	     -4.72284945	     25.53011969	    -12.25847349	     13.92466456	     -4.23591624	     17.04741926	     -8.76421848	      9.89160897	    -57.82474428	     15.41952119	     42.92680172	     -0.48929258	      4.82964614	     12.28216549
